<?xml version="1.0" standalone="no"?><!DOCTYPE svg PUBLIC "-//W3C//DTD SVG 1.1//EN" "http://www.w3.org/Graphics/SVG/1.1/DTD/svg11.dtd"><svg t="1530852154631" class="icon" style="" viewBox="0 0 1024 1024" version="1.1" xmlns="http://www.w3.org/2000/svg" p-id="10988" xmlns:xlink="http://www.w3.org/1999/xlink" width="18" height="18"><defs><style type="text/css"></style></defs><path d="M966.358 206.472H798.55v-6.942l-0.122-1.266c-6.278-65.291-42.83-93.515-46.977-96.518l-6.972-5.048H309.987l-4.824 1.97c-66.608 27.186-72.814 108.81-72.814 108.81-0.002 0.071-171.667 0.59-171.667 0.59-2.43 6.307-0.757 127.482-0.757 127.482 0.718 37.175 23.15 87.801 46.044 107.288 35.06 29.844 101.424 49.594 139.529 50.252 12.253 29.26 35.512 73.063 67.28 112.38 50.281 62.228 109.087 98.443 171.33 105.905v174.623h-113.67V942.3h283.637v-56.302H539.346V710.092c30.163-5.374 60.376-18.61 90.163-39.545 30.118-21.167 59.956-50.315 88.686-86.635 27.743-35.074 48.98-69.85 62.212-93.473 42.194-4.536 109.86-22.976 140.663-49.197 22.894-19.486 45.326-70.112 46.044-107.287 0 0 1.674-121.175-0.756-127.483zM143.503 403.18c-32.44-26.404-27.755-128.69-26.62-136.682h114.17c-0.264 16.786-0.49 35.713-0.574 55.029-0.267 60.366 0.929 95.854 2.472 117.217-24.962-3.678-64.682-15.406-89.448-35.564z m601.933 40.004c-7.685 15.181-32.341 61.56-68.9 107.777-39.04 49.355-99.726 108.29-167.12 108.764l-1.093 0.006c-55.35 0-107.24-29.487-154.23-87.642-41.188-50.972-62.119-103.93-65.469-115.323-5.89-20.025-6.251-142.246-3.202-249.14 0.408-3.91 5.223-42.286 35.523-57.81h404.25c6.587 7.742 17.289 24.281 20.241 52.322v241.046z m138.1-41.6c-19.773 16.094-56.242 26.813-84.985 32.353V264.9h111.605c1.134 7.993 5.82 110.279-26.62 136.682z" fill="" p-id="10989"></path></svg>