<?xml version="1.0" standalone="no"?><!DOCTYPE svg PUBLIC "-//W3C//DTD SVG 1.1//EN" "http://www.w3.org/Graphics/SVG/1.1/DTD/svg11.dtd"><svg t="1525328374333" class="icon" style="" viewBox="0 0 1024 1024" version="1.1" xmlns="http://www.w3.org/2000/svg" p-id="1478" xmlns:xlink="http://www.w3.org/1999/xlink" width="18" height="18"><defs><style type="text/css"></style></defs><path d="M762 532.6 533.1 532.6c-18 0-32.7-14.7-32.7-32.9l0-230c0-18.1-14.6-32.9-32.7-32.9-89.1 0-172.3 35.3-234.4 99.5-62.1 64.1-94.9 148.8-92.5 238.4 4.7 171.2 147.2 314.4 317.6 319.1 3.1 0.1 6.2 0.1 9.3 0.1 85.7 0 166.3-32.8 227.9-93 63.9-62.4 99-146.1 99-235.5C794.7 547.3 780 532.6 762 532.6zM650 753.8C599 803.7 531.4 830 460.3 828.2 324 824.4 210 709.9 206.2 572.9c-2-71.7 24.3-139.4 74-190.7 42-43.4 96-70.3 154.8-77.6l0 195.1c0 54.4 44 98.6 98.1 98.6l194.2 0C720 657.3 693.2 711.6 650 753.8zM897.3 387.8c-3.4-17.2-19.9-28.5-37.1-25-17.1 3.4-28.3 20.1-24.9 37.3 1.1 5.8 2.1 11.7 2.8 17.7L619 417.8 619 197.5c60.2 7.6 116.3 37 157.1 83 3.2 3.6 6.4 7.4 9.4 11.2 10.8 13.7 30.7 16.1 44.4 5.2 13.7-10.9 16-30.8 5.2-44.6-3.8-4.8-7.7-9.5-11.8-14C763.3 170.8 677.3 132 587.4 132c-17.5 0-31.6 14.2-31.6 31.7l0 254c0 35 28.4 63.5 63.2 63.5l252.7 0c17.5 0 31.6-14.2 31.6-31.7C903.3 428.8 901.3 408 897.3 387.8z" p-id="1479"></path></svg>