<?xml version="1.0" standalone="no"?><!DOCTYPE svg PUBLIC "-//W3C//DTD SVG 1.1//EN" "http://www.w3.org/Graphics/SVG/1.1/DTD/svg11.dtd"><svg t="1536218113905" class="icon" style="" viewBox="0 0 1024 1024" version="1.1" xmlns="http://www.w3.org/2000/svg" p-id="1449" xmlns:xlink="http://www.w3.org/1999/xlink" width="18" height="18"><defs><style type="text/css"></style></defs><path d="M841.531618 149.984322c74.259626 83.54208 120.671893 204.213972 120.671893 362.015678 0 129.954346-37.129813 232.061332-157.801706 297.038505-18.564907 9.282453-46.412266 18.564907-74.259626 27.84736 9.282453 46.412266 46.412266 120.671893 46.412266 157.801706l0 27.84736-324.885865 0c18.564907-55.69472 27.84736-83.54208 18.564907-139.236799-74.259626 9.282453-148.519253 0-213.496425-9.282453-64.977173-9.282453-120.671893-37.129813-148.519253-64.977173l0-9.282453c-92.824533-92.824533-18.564907-167.084159-18.564907-259.908692 0-27.84736 0-46.412266 0-74.259626 9.282453-167.084159 18.564907-315.603412 185.649066-408.427944 185.649066-92.824533 426.992851-74.259626 566.22965 92.824533zm-46.412266 37.129813c-120.671893-139.236799-334.168318-157.801706-491.970024-74.259626-148.519253 74.259626-148.519253 204.213972-148.519253 352.733225 0 27.84736 0 55.69472 0 74.259626-9.282453 74.259626-64.977173 157.801706-9.282453 222.778879 27.84736 27.84736 74.259626 46.412266 129.954346 55.69472 83.54208 18.564907 157.801706 9.282453 241.343785 9.282453 9.282453 46.412266 18.564907 83.54208 9.282453 139.236799l185.649066 0c-18.564907-55.69472-37.129813-111.389439-55.69472-167.084159 46.412266-9.282453 83.54208-27.84736 120.671893-46.412266 102.106986-46.412266 120.671893-139.236799 120.671893-241.343785 0-139.236799-37.129813-250.626239-102.106986-324.885865z" p-id="1450" fill="#909399"></path><path d="M423.82122 279.938668c92.824533-46.412266 204.213972-9.282453 250.626239 74.259626 27.84736 64.977173 27.84736 139.236799-18.564907 194.931519l27.84736 46.412266c18.564907 37.129813 0 83.54208-37.129813 111.389439-37.129813 18.564907-92.824533 0-111.389439-37.129813l-18.564907-46.412266c-74.259626 0-129.954346-27.84736-167.084159-92.824533-46.412266-83.54208-18.564907-194.931519 74.259626-250.626239zm120.671893 306.320958l55.69472-27.84736-37.129813-83.54208-18.564907 27.84736-37.129813-9.282453 37.129813 92.824533zm-37.129813 0l-64.977173-129.954346 83.54208 9.282453 37.129813-64.977173 64.977173 129.954346c37.129813-46.412266 37.129813-111.389439 9.282453-157.801706-37.129813-64.977173-120.671893-92.824533-194.931519-55.69472-74.259626 37.129813-102.106986 120.671893-64.977173 194.931519 27.84736 46.412266 83.54208 74.259626 129.954346 74.259626z" p-id="1451" fill="#909399"></path><path d="M368.126501 224.243948c-9.282453-9.282453 0-18.564907 9.282453-27.84736 9.282453 0 18.564907 0 18.564907 9.282453l27.84736 37.129813c0 9.282453 0 27.84736-9.282453 27.84736-9.282453 9.282453-18.564907 0-27.84736-9.282453l-18.564907-37.129813z" p-id="1452" fill="#909399"></path><path d="M275.301968 326.350934c-9.282453-9.282453-9.282453-18.564907-9.282453-27.84736 9.282453-9.282453 18.564907-9.282453 27.84736-9.282453l37.129813 27.84736c9.282453 0 9.282453 18.564907 9.282453 27.84736-9.282453 9.282453-18.564907 9.282453-27.84736 0l-37.129813-18.564907z" p-id="1453" fill="#909399"></path><path d="M247.454608 456.30528c-18.564907 0-18.564907-9.282453-18.564907-18.564907 0-9.282453 9.282453-18.564907 18.564907-18.564907l46.412266 0c9.282453 0 18.564907 9.282453 18.564907 18.564907-9.282453 9.282453-9.282453 18.564907-27.84736 18.564907l-37.129813 0z" p-id="1454" fill="#909399"></path><path d="M284.584421 586.259626c-9.282453 0-18.564907 0-27.84736-9.282453 0-9.282453 0-18.564907 9.282453-27.84736l37.129813-18.564907c9.282453 0 27.84736 0 27.84736 9.282453 9.282453 9.282453 0 18.564907-9.282453 27.84736l-37.129813 18.564907z" p-id="1455" fill="#909399"></path><path d="M498.080847 187.114135c0-18.564907 9.282453-18.564907 18.564907-18.564907 9.282453 0 18.564907 9.282453 18.564907 18.564907l-9.282453 46.412266c0 9.282453 0 18.564907-18.564907 18.564907-9.282453 0-9.282453-9.282453-9.282453-18.564907l0-46.412266z" p-id="1456" fill="#909399"></path><path d="M628.035192 214.961495c9.282453-9.282453 18.564907-9.282453 27.84736-9.282453 9.282453 9.282453 9.282453 18.564907 0 27.84736l-18.564907 37.129813c-9.282453 9.282453-18.564907 9.282453-27.84736 9.282453-9.282453-9.282453-9.282453-18.564907-9.282453-27.84736l27.84736-37.129813z" p-id="1457" fill="#909399"></path><path d="M730.142179 307.786028c9.282453-9.282453 18.564907 0 18.564907 9.282453 9.282453 9.282453 0 18.564907 0 18.564907l-46.412266 27.84736c-9.282453 0-18.564907 0-18.564907-9.282453-9.282453-9.282453-9.282453-18.564907 0-27.84736l46.412266-18.564907z" p-id="1458" fill="#909399"></path></svg>