<?xml version="1.0" standalone="no"?><!DOCTYPE svg PUBLIC "-//W3C//DTD SVG 1.1//EN" "http://www.w3.org/Graphics/SVG/1.1/DTD/svg11.dtd"><svg t="1530523255802" class="icon" style="" viewBox="0 0 1024 1024" version="1.1" xmlns="http://www.w3.org/2000/svg" p-id="2238" xmlns:xlink="http://www.w3.org/1999/xlink" width="18" height="18"><defs><style type="text/css"></style></defs><path d="M890.005333 277.333333l-640 0c-11.733333 0-21.333333-9.6-21.333333-21.333333l0 0c0-11.733333 9.6-21.333333 21.333333-21.333333l640 0c11.733333 0 21.333333 9.6 21.333333 21.333333l0 0C911.338667 267.733333 901.738667 277.333333 890.005333 277.333333z" p-id="2239"></path><path d="M890.005333 533.333333l-640 0c-11.733333 0-21.333333-9.6-21.333333-21.333333l0 0c0-11.733333 9.6-21.333333 21.333333-21.333333l640 0c11.733333 0 21.333333 9.6 21.333333 21.333333l0 0C911.338667 523.733333 901.738667 533.333333 890.005333 533.333333z" p-id="2240"></path><path d="M890.005333 787.989333l-640 0c-11.733333 0-21.333333-9.6-21.333333-21.333333l0 0c0-11.733333 9.6-21.333333 21.333333-21.333333l640 0c11.733333 0 21.333333 9.6 21.333333 21.333333l0 0C911.338667 778.389333 901.738667 787.989333 890.005333 787.989333z" p-id="2241"></path><path d="M133.994667 256m-21.333333 0a1 1 0 1 0 42.666667 0 1 1 0 1 0-42.666667 0Z" p-id="2242"></path><path d="M133.994667 512m-21.333333 0a1 1 0 1 0 42.666667 0 1 1 0 1 0-42.666667 0Z" p-id="2243"></path><path d="M133.994667 768m-21.333333 0a1 1 0 1 0 42.666667 0 1 1 0 1 0-42.666667 0Z" p-id="2244"></path></svg>