<?xml version="1.0" standalone="no"?><!DOCTYPE svg PUBLIC "-//W3C//DTD SVG 1.1//EN" "http://www.w3.org/Graphics/SVG/1.1/DTD/svg11.dtd"><svg t="1531832805818" class="icon" style="" viewBox="0 0 1024 1024" version="1.1" xmlns="http://www.w3.org/2000/svg" p-id="8806" xmlns:xlink="http://www.w3.org/1999/xlink" width="18" height="18"><defs><style type="text/css"></style></defs><path d="M606.811539 89.321891c-164.582012 81.194279-158.250279 262.524509-130.090278 429.522618 34.008436 201.320339 7.266521 303.571782-91.101479 352.098909-102.188218 50.414158-226.584436 8.474764-277.154909-94.033066-50.569309-102.504339-8.472048-226.582885 94.035006-277.15297 17.507297-8.638061 24.766061-30.029964 16.129163-47.5392-8.638061-17.508073-30.032679-24.768388-47.539587-16.130327-137.207079 67.687952-194.137212 234.708558-126.291782 372.231757 67.846594 137.525915 234.708945 194.141479 372.233309 126.295661 164.264339-81.039903 157.9264-261.573818 129.922327-427.462594-34.162812-202.430061-7.579539-305.002279 91.423806-353.843588 102.189382-50.414545 226.583661-8.472436 277.156073 94.035006 50.570085 102.507055 8.472048 226.583661-94.033455 277.153358-17.510012 8.638061-24.766448 30.031127-16.129939 47.5392 8.638448 17.508848 30.031515 24.768776 47.539588 16.130715 137.205139-67.690279 194.1376-234.711273 126.293333-372.234473-67.846982-137.5232-234.864097-194.457988-372.391176-126.611006z" p-id="8807"></path></svg>