<?xml version="1.0" standalone="no"?><!DOCTYPE svg PUBLIC "-//W3C//DTD SVG 1.1//EN" "http://www.w3.org/Graphics/SVG/1.1/DTD/svg11.dtd"><svg t="1536808364190" class="icon" style="" viewBox="0 0 1210 1024" version="1.1" xmlns="http://www.w3.org/2000/svg" p-id="2862" xmlns:xlink="http://www.w3.org/1999/xlink" width="37.8125" height="32"><defs><style type="text/css"></style></defs><path d="M1024 958.836364l-37.236364 18.618181v-46.545454l37.236364 27.927273z m-37.236364-912.290909c0-13.963636 9.309091-23.272727 23.272728-23.272728s23.272727 9.309091 23.272727 23.272728v930.90909c0 18.618182-23.272727 27.927273-37.236364 18.618182l-190.836363-144.290909-190.836364 144.290909c-9.309091 4.654545-18.618182 4.654545-27.927273 0l-190.836363-144.290909-190.836364 144.290909c-13.963636 13.963636-37.236364 0-37.236364-18.618182v-930.90909c0-13.963636 9.309091-23.272727 23.272728-23.272728s23.272727 9.309091 23.272727 23.272728v884.363636l167.563636-125.672727c9.309091-4.654545 18.618182-4.654545 27.927273 0l190.836364 144.290909 190.836363-144.290909c9.309091-4.654545 18.618182-4.654545 27.927273 0l167.563636 125.672727v-884.363636z" p-id="2863"></path><path d="M200.145455 283.927273v46.545454h-23.272728c-83.781818 0-148.945455-69.818182-148.945454-153.6s65.163636-153.6 148.945454-153.6h861.090909c83.781818 0 148.945455 69.818182 148.945455 153.6s-65.163636 153.6-148.945455 153.6h-23.272727v-46.545454h23.272727c55.854545 0 102.4-46.545455 102.4-107.054546s-46.545455-107.054545-102.4-107.054545h-861.090909c-55.854545 0-102.4 46.545455-102.4 107.054545s46.545455 107.054545 102.4 107.054546h23.272728z" p-id="2864"></path><path d="M358.4 302.545455c-13.963636 0-23.272727-9.309091-23.272727-23.272728s9.309091-23.272727 23.272727-23.272727h512c13.963636 0 23.272727 9.309091 23.272727 23.272727s-9.309091 23.272727-23.272727 23.272728h-512zM358.4 460.8c-13.963636 0-23.272727-9.309091-23.272727-23.272727s9.309091-23.272727 23.272727-23.272728h325.818182c13.963636 0 23.272727 9.309091 23.272727 23.272728s-9.309091 23.272727-23.272727 23.272727h-325.818182z" p-id="2865"></path></svg>