<?xml version="1.0" standalone="no"?><!DOCTYPE svg PUBLIC "-//W3C//DTD SVG 1.1//EN" "http://www.w3.org/Graphics/SVG/1.1/DTD/svg11.dtd"><svg t="1531832618934" class="icon" style="" viewBox="0 0 1024 1024" version="1.1" xmlns="http://www.w3.org/2000/svg" p-id="5658" xmlns:xlink="http://www.w3.org/1999/xlink" width="18" height="18"><defs><style type="text/css"></style></defs><path d="M737.183134 501.778194c48.958038-32.877805 81.242326-88.75544 81.242326-152.037718 0-100.886735-82.0886-182.964078-182.987614-182.964078-100.901061 0-182.988638 82.077344-182.988638 182.964078 0 63.281255 32.284287 119.159914 81.243349 152.037718-139.850142 43.462884-241.685481 174.074617-241.685481 328.023872 0 12.801561 10.377348 23.178909 23.178909 23.178909s23.178909-10.378371 23.178909-23.178909c0-163.794483 133.26619-297.051463 297.072953-297.051463s297.072953 133.25698 297.072953 297.051463c0 12.801561 10.378371 23.178909 23.178909 23.178909s23.178909-10.378371 23.178909-23.178909C978.867592 675.852812 877.032252 545.241079 737.183134 501.778194zM498.806002 349.740476c0-75.324546 61.291948-136.606261 136.63082-136.606261s136.629797 61.280692 136.629797 136.606261c0 75.350129-61.291948 136.65231-136.629797 136.65231S498.806002 425.090605 498.806002 349.740476z" p-id="5659"></path><path d="M389.905756 548.531008c0-12.801561-10.378371-23.178909-23.178909-23.178909-64.753793 0-117.434619-52.692083-117.434619-117.460202 0-64.741513 52.680826-117.411083 117.434619-117.411083 12.801561 0 23.178909-10.378371 23.178909-23.178909s-10.378371-23.178909-23.178909-23.178909c-90.315982 0-163.792437 73.467245-163.792437 163.769924 0 54.622038 26.873044 103.077633 68.084655 132.858914C149.597645 580.981071 61.754994 695.569876 61.754994 830.30144c0 12.801561 10.378371 23.178909 23.178909 23.178909s23.178909-10.378371 23.178909-23.178909c0-142.587486 116.013247-258.5905 258.614036-258.5905C379.528408 571.71094 389.905756 561.332569 389.905756 548.531008z" p-id="5660"></path></svg>