<?xml version="1.0" standalone="no"?><!DOCTYPE svg PUBLIC "-//W3C//DTD SVG 1.1//EN" "http://www.w3.org/Graphics/SVG/1.1/DTD/svg11.dtd"><svg t="1536808628684" class="icon" style="" viewBox="0 0 1024 1024" version="1.1" xmlns="http://www.w3.org/2000/svg" p-id="3546" xmlns:xlink="http://www.w3.org/1999/xlink" width="32" height="32"><defs><style type="text/css"></style></defs><path d="M528.875 427.625l140.625-140.625-39.375-39.375-118.125 118.125-118.125-118.125-39.375 39.375 118.125 118.125 16.875 22.5h-118.125v56.25h112.5v56.25h-112.5v56.25h112.5v168.75h56.25v-168.75h112.5v-56.25h-112.5v-56.25h112.5v-56.25h-123.75z" fill="#333333" p-id="3547"></path><path d="M512 90.125c-230.625 0-421.875 191.25-421.875 421.875s191.25 421.875 421.875 421.875 421.875-191.25 421.875-421.875-191.25-421.875-421.875-421.875zM512 877.625c-202.5 0-365.625-163.125-365.625-365.625s163.125-365.625 365.625-365.625 365.625 163.125 365.625 365.625-163.125 365.625-365.625 365.625z" fill="#333333" p-id="3548"></path></svg>