<?xml version="1.0" standalone="no"?><!DOCTYPE svg PUBLIC "-//W3C//DTD SVG 1.1//EN" "http://www.w3.org/Graphics/SVG/1.1/DTD/svg11.dtd"><svg t="1531832707217" class="icon" style="" viewBox="0 0 1024 1024" version="1.1" xmlns="http://www.w3.org/2000/svg" p-id="7116" xmlns:xlink="http://www.w3.org/1999/xlink" width="18" height="18"><defs><style type="text/css"></style></defs><path d="M942.391652 675.528348V358.622609a127.332174 127.332174 0 0 0-66.292869-110.992696l-299.453218-164.507826a127.065043 127.065043 0 0 0-122.345739 0L155.247304 247.629913A127.287652 127.287652 0 0 0 89.043478 358.622609v316.905739c0 45.901913 25.555478 88.598261 66.248348 110.992695l299.453217 164.507827c38.021565 20.925217 84.324174 20.925217 122.390261 0l299.052522-164.507827a127.332174 127.332174 0 0 0 66.203826-110.992695z m-44.744348 150.038261l-299.052521 164.463304a171.542261 171.542261 0 0 1-165.309218 0l-299.453217-164.507826A171.853913 171.853913 0 0 1 44.521739 675.528348V358.622609c0-62.241391 34.415304-119.852522 89.266087-150.038261L432.751304 44.121043a171.542261 171.542261 0 0 1 165.309218 0l299.453217 164.507827a171.853913 171.853913 0 0 1 89.355131 149.993739v316.905739a171.853913 171.853913 0 0 1-89.266087 150.038261z" p-id="7117"></path><path d="M115.97913 273.67513l-21.325913 39.090087 421.042087 229.687653 421.086609-229.687653-21.325913-39.090087-399.760696 218.022957z" p-id="7118"></path><path d="M493.434435 517.075478v448.912696h44.521739V517.075478z" p-id="7119"></path></svg>