<?xml version="1.0" standalone="no"?><!DOCTYPE svg PUBLIC "-//W3C//DTD SVG 1.1//EN" "http://www.w3.org/Graphics/SVG/1.1/DTD/svg11.dtd"><svg t="1536807083817" class="icon" style="" viewBox="0 0 1024 1024" version="1.1" xmlns="http://www.w3.org/2000/svg" p-id="1865" xmlns:xlink="http://www.w3.org/1999/xlink" width="32" height="32"><defs><style type="text/css"></style></defs><path d="M542.254545 293.236364h-44.218181v60.509091c-58.181818 9.309091-102.4 46.545455-102.4 114.036363 0 144.290909 218.763636 67.490909 218.763636 174.545455 0 55.854545-44.218182 72.145455-90.763636 72.145454-58.181818 0-100.072727-23.272727-100.072728-88.436363h-44.218181c0 83.781818 46.545455 121.018182 116.363636 130.327272v60.509091h44.218182v-58.181818h-2.327273c65.163636-4.654545 118.690909-39.563636 118.690909-116.363636 0-153.6-218.763636-79.127273-218.763636-174.545455 0-51.2 34.909091-72.145455 88.436363-72.145454 39.563636 0 67.490909 16.290909 72.145455 72.145454h44.218182c-2.327273-81.454545-46.545455-111.709091-104.727273-116.363636h2.327273v-58.181818zM819.2 58.181818H481.745455c-16.290909 0-30.254545 13.963636-30.254546 30.254546 2.327273 16.290909 13.963636 27.927273 30.254546 27.927272h337.454545c16.290909 0 30.254545 13.963636 30.254545 30.254546v730.763636c0 16.290909-13.963636 30.254545-30.254545 30.254546H204.8c-16.290909 0-30.254545-13.963636-30.254545-30.254546V395.636364c0-16.290909-13.963636-30.254545-30.254546-30.254546S116.363636 379.345455 116.363636 395.636364v481.745454c0 48.872727 39.563636 88.436364 88.436364 88.436364h614.4c48.872727 0 88.436364-39.563636 88.436364-88.436364V146.618182c0-48.872727-39.563636-88.436364-88.436364-88.436364z m-409.6 204.8v-209.454545L123.345455 321.163636h228.072727c32.581818 0 58.181818-25.6 58.181818-58.181818z" fill="#909399" p-id="1866"></path></svg>