<?xml version="1.0" standalone="no"?><!DOCTYPE svg PUBLIC "-//W3C//DTD SVG 1.1//EN" "http://www.w3.org/Graphics/SVG/1.1/DTD/svg11.dtd"><svg t="1531832752256" class="icon" style="" viewBox="0 0 1024 1024" version="1.1" xmlns="http://www.w3.org/2000/svg" p-id="8073" xmlns:xlink="http://www.w3.org/1999/xlink" width="18" height="18"><defs><style type="text/css"></style></defs><path d="M47.25248 598.35904c11.79136 10.30656 27.5712 18.77504 47.34464 25.41568 19.7632 6.64576 38.53312 9.96864 56.31488 9.96864 54.15424 0 81.2288-19.27168 81.2288-57.80992 0-10.79296-2.90816-20.51584-8.71936-29.15328-5.81632-8.63744-13.78816-16.27648-23.92064-22.92224s-29.15328-16.86016-57.0624-30.64832c-38.7072-19.27168-64.2048-37.16608-76.4928-53.69344-12.29312-16.53248-18.44224-35.42528-18.44224-56.68864 0-32.05632 12.87168-57.472 38.62016-76.24704 25.74848-18.76992 58.21952-28.15488 97.42848-28.15488 38.3744 0 66.52928 4.64896 84.46976 13.952l0 54.31808c-23.25504-16.10752-52.6592-24.17152-88.20736-24.17152-23.58784 0-42.81856 4.94592-57.68704 14.82752-14.86848 9.88672-22.2976 23.6288-22.2976 41.23648 0 15.616 5.1456 28.32384 15.44704 38.12352 10.29632 9.79968 32.64 23.168 67.02592 40.1152 37.87264 18.10944 64.36864 36.21376 79.488 54.31808 15.11424 18.10944 22.67648 38.46144 22.67648 61.05088 0 33.88416-12.29824 59.88352-36.87936 77.98784-24.58624 18.10432-58.7264 27.1616-102.41024 27.1616-15.28832 0-33.1008-2.11968-53.44768-6.35392-20.352-4.23424-35.17952-9.50784-44.47744-15.82592L47.25248 598.35904z" p-id="8074"></path><path d="M634.30656 670.86848l-68.2752 0L421.01248 495.45728c-4.98176-6.144-8.39168-10.96704-10.2144-14.45376l-1.24416 0 0 189.87008-49.83296 0L359.72096 284.9024l49.83296 0 0 181.65248 1.24416 0c2.82112-4.48512 6.23104-9.22112 10.2144-14.20288l140.03712-167.44448 61.54752 0L460.63104 470.03648 634.30656 670.86848z" p-id="8075"></path><path d="M969.69216 513.6384c0 109.13792-49.50528 163.712-148.5056 163.712-94.85312 0-142.27968-52.6592-142.27968-157.97248L678.90688 284.9024l49.83296 0 0 232.22784c0 77.24544 32.38912 115.8656 97.17248 115.8656 62.62272 0 93.94176-37.376 93.94176-112.12288L919.85408 284.9024l49.83296 0L969.68704 513.6384z" p-id="8076"></path></svg>