<?xml version="1.0" standalone="no"?><!DOCTYPE svg PUBLIC "-//W3C//DTD SVG 1.1//EN" "http://www.w3.org/Graphics/SVG/1.1/DTD/svg11.dtd"><svg t="1530852025718" class="icon" style="" viewBox="0 0 1024 1024" version="1.1" xmlns="http://www.w3.org/2000/svg" p-id="7345" xmlns:xlink="http://www.w3.org/1999/xlink" width="18" height="18"><defs><style type="text/css"></style></defs><path d="M537.68192 238.26432c11.34592-11.34592 35.6352-22.48704 51.93728-23.7568l273.53088-21.01248c8.6016-0.65536 13.84448 4.54656 13.18912 13.18912l-21.05344 273.53088c-1.2288 16.13824-12.53376 40.71424-24.04352 52.224l-227.49184 227.49184a20.48 20.48 0 0 0 28.95872 28.95872L860.16 561.39776c18.432-18.432 33.91488-52.14208 35.92192-78.06976l21.05344-273.53088c2.58048-33.71008-23.552-59.71968-57.18016-57.1392l-273.53088 21.05344c-26.0096 1.96608-59.47392 17.32608-77.74208 35.6352a20.48 20.48 0 1 0 28.95872 28.91776z m30.72 557.056l-37.02784 36.98688a20.48 20.48 0 1 0 28.95872 28.95872l36.98688-36.98688a20.48 20.48 0 1 0-28.95872-28.95872z m-86.95808 86.91712a55.7056 55.7056 0 0 1-78.6432-0.45056L188.0064 667.0336a55.82848 55.82848 0 0 1-0.2048-78.92992L376.6272 399.36a20.48 20.48 0 0 0-28.95872-28.95872l-188.78464 188.78464c-37.6832 37.6832-37.60128 99.04128 0.2048 136.8064l214.75328 214.79424a96.6656 96.6656 0 0 0 136.56064 0.45056 20.48 20.48 0 0 0-28.95872-28.95872z m-52.4288-535.3472l108.66688-108.62592a20.48 20.48 0 0 0-28.95872-28.95872L400.09728 317.93152a20.48 20.48 0 1 0 28.95872 28.99968z m173.71136 120.2176a87.04 87.04 0 1 0 123.12576-123.12576 87.04 87.04 0 0 0-123.12576 123.12576z m28.95872-94.208a46.08 46.08 0 1 1 65.20832 65.24928 46.08 46.08 0 0 1-65.20832-65.20832z" p-id="7346"></path></svg>